# xmcd
#
# Track frame offsets:
#	150
#	10771
#	23028
#	35899
#	48717
#	61242
#	71487
#	84266
#	97363
#	108204
#	120333
#	132395
#	142898
#	154634
#	166691
#	180331
#
# Disc length: 2575 seconds
#
# Revision: 1
# Processed by: cddbd v1.5.2PL0 Copyright (c) Steve Scherf et al.
# Submitted via: audiograbber 1.83.01
#
DISCID=c80a0d10
DTITLE=Diverse - Country and Western Hits - CD1
DYEAR=1900
DGENRE=Country
TTITLE0=Jim Reevers - Where Does A Broken Heart Go 
TTITLE1=Hank Snow - Lonesome Blue Yodel 
TTITLE2=Hardrock Gunter - I Believe That Mountain Music Is Here To Stay 
TTITLE3=Merle Travis - Sixteen Tons 
TTITLE4=Marty Robbins - You Don't Owe Me A Thing 
TTITLE5=Johnny Horton - Coal Smoke, Valve Oil And Steel 
TTITLE6=Roy Accuf - Night Train To Memphis 
TTITLE7=Patsy Montana - Old Nevada Moon 
TTITLE8=Little Jimmy Dickens - OId Country Preacher 
TTITLE9=Ray Price - Release Me 
TTITLE10=Sheb Wooley - Blue Guitar 
TTITLE11=Chet Atkins - 12th Street Rag 
TTITLE12=Eddy Arnold - A Heart Full Of Love 
TTITLE13=Ferlin Husky - EU The Camel 
TTITLE14=Red Foley - Goodnight Irene 
TTITLE15=Cowboy Copas - Breeze 
EXTD=ISBN: 978-3-86735-499-8\nMembran Music Ltd.
EXTT0=
EXTT1=
EXTT2=
EXTT3=
EXTT4=
EXTT5=
EXTT6=
EXTT7=
EXTT8=
EXTT9=
EXTT10=
EXTT11=
EXTT12=
EXTT13=
EXTT14=
EXTT15=
PLAYORDER=
